<?xml version="1.0" encoding="UTF-8" standalone="no"?>
<svg
   viewBox="0 0 419.68133 203.32222"
   height="203.32222"
   width="419.68134"
   xml:space="preserve"
   id="svg2"
   version="1.1"
   sodipodi:docname="08_Supreme.svg"
   inkscape:version="1.2.1 (9c6d41e410, 2022-07-14)"
   xmlns:inkscape="http://www.inkscape.org/namespaces/inkscape"
   xmlns:sodipodi="http://sodipodi.sourceforge.net/DTD/sodipodi-0.dtd"
   xmlns="http://www.w3.org/2000/svg"
   xmlns:svg="http://www.w3.org/2000/svg"
   xmlns:rdf="http://www.w3.org/1999/02/22-rdf-syntax-ns#"
   xmlns:cc="http://creativecommons.org/ns#"
   xmlns:dc="http://purl.org/dc/elements/1.1/"><sodipodi:namedview
     id="namedview62"
     pagecolor="#505050"
     bordercolor="#eeeeee"
     borderopacity="1"
     inkscape:showpageshadow="0"
     inkscape:pageopacity="0"
     inkscape:pagecheckerboard="0"
     inkscape:deskcolor="#505050"
     showgrid="false"
     inkscape:zoom="0.68394686"
     inkscape:cx="228.08789"
     inkscape:cy="87.726113"
     inkscape:window-width="1920"
     inkscape:window-height="1009"
     inkscape:window-x="1358"
     inkscape:window-y="-8"
     inkscape:window-maximized="1"
     inkscape:current-layer="svg2" /><metadata
     id="metadata8"><rdf:RDF><cc:Work
         rdf:about=""><dc:format>image/svg+xml</dc:format><dc:type
           rdf:resource="http://purl.org/dc/dcmitype/StillImage" /></cc:Work></rdf:RDF></metadata><defs
     id="defs6"><clipPath
       id="clipPath66"
       clipPathUnits="userSpaceOnUse"><path
         id="path64"
         d="m 3740.89,3960.52 c 5.08,-184.13 -71.97,-303.19 -228.75,-395.12 -191.97,-112.57 -390.34,-228.4 -583.63,-339.63 -214.17,-123.24 -267.5,-273.92 -113.7,-472.59 -50.01,-109.63 -224.29,-89.49 -320.46,-73.59 -107.75,65.51 -139.12,208.68 -133,325.86 8.7,166.55 96.98,325.04 217.94,437.69 386.35,291.25 773.16,581.89 1160.58,871.71 -0.01,-118.11 0.37,-236.22 1.02,-354.33 z" /></clipPath><linearGradient
       id="linearGradient72"
       spreadMethod="pad"
       gradientTransform="matrix(-1535.66,103.361,103.361,1535.66,3917.06,3440.86)"
       gradientUnits="userSpaceOnUse"
       y2="0"
       x2="1"
       y1="0"
       x1="0"><stop
         id="stop68"
         offset="0"
         style="stop-opacity:1;stop-color:#00c4ff" /><stop
         id="stop70"
         offset="1"
         style="stop-opacity:1;stop-color:#001973" /></linearGradient><clipPath
       id="clipPath82"
       clipPathUnits="userSpaceOnUse"><path
         id="path80"
         d="m 2814.81,2753.18 c 0,0 -23.38,18.93 -61.9,53.29 -182.63,162.82 -421.03,414.55 -173.62,636.67 -81.52,-61.76 -149.68,-136.39 -208.46,-215.09 -175.04,-234.36 -140.96,-611.42 -132.54,-892.7 4.04,-135.22 163.79,-165.21 265.38,-111.16 111.88,59.52 231.23,126.32 339.5,184.6 166.08,89.43 84.36,253.69 -28.36,344.39 z" /></clipPath><linearGradient
       id="linearGradient88"
       spreadMethod="pad"
       gradientTransform="matrix(-837.952,56.4,56.4,837.952,3067.42,2781.78)"
       gradientUnits="userSpaceOnUse"
       y2="0"
       x2="1"
       y1="0"
       x1="0"><stop
         id="stop84"
         offset="0"
         style="stop-opacity:1;stop-color:#001973" /><stop
         id="stop86"
         offset="1"
         style="stop-opacity:1;stop-color:#00c4ff" /></linearGradient><clipPath
       id="clipPath98"
       clipPathUnits="userSpaceOnUse"><path
         id="path96"
         d="m 2244,1521.57 c -5.07,184.14 71.94,303.19 228.77,395.11 192.01,112.54 390.36,228.46 583.6,339.64 214.13,123.2 267.52,273.94 113.72,472.59 50.04,109.64 224.29,89.47 320.48,73.58 107.7,-65.53 139.04,-208.74 132.96,-325.86 -8.65,-166.44 -97.02,-325.03 -217.9,-437.68 -386.37,-291.24 -773.18,-581.87 -1160.61,-871.71 0,118.11 -0.36,236.21 -1.02,354.33 z" /></clipPath><linearGradient
       id="linearGradient104"
       spreadMethod="pad"
       gradientTransform="matrix(1535.65,-103.36,-103.36,-1535.65,2067.85,2041.23)"
       gradientUnits="userSpaceOnUse"
       y2="0"
       x2="1"
       y1="0"
       x1="0"><stop
         id="stop100"
         offset="0"
         style="stop-opacity:1;stop-color:#00c4ff" /><stop
         id="stop102"
         offset="1"
         style="stop-opacity:1;stop-color:#001973" /></linearGradient><clipPath
       id="clipPath114"
       clipPathUnits="userSpaceOnUse"><path
         id="path112"
         d="m 3170.09,2728.91 c 0,0 23.37,-18.95 61.89,-53.28 182.7,-162.88 420.98,-414.49 173.65,-636.68 81.51,61.75 149.61,136.38 208.41,215.08 175.1,234.37 141.05,611.48 132.57,892.7 -4.08,135.25 -163.75,165.22 -265.38,111.16 -111.91,-59.51 -231.24,-126.29 -339.5,-184.61 -166.07,-89.44 -84.37,-253.64 28.36,-344.37 z" /></clipPath><linearGradient
       id="linearGradient120"
       spreadMethod="pad"
       gradientTransform="matrix(837.986,-56.4023,-56.4023,-837.986,2917.48,2700.3)"
       gradientUnits="userSpaceOnUse"
       y2="0"
       x2="1"
       y1="0"
       x1="0"><stop
         id="stop116"
         offset="0"
         style="stop-opacity:1;stop-color:#001973" /><stop
         id="stop118"
         offset="1"
         style="stop-opacity:1;stop-color:#00c4ff" /></linearGradient></defs><g
     id="g983"
     transform="rotate(90,448.80451,151.47016)"><g
       id="g60"
       transform="matrix(0.13333333,0,0,-0.13333333,0,755.90667)"><g
         clip-path="url(#clipPath66)"
         id="g62"><path
           id="path74"
           style="fill:url(#linearGradient72);fill-opacity:1;fill-rule:nonzero;stroke:none"
           d="m 3740.89,3960.52 c 5.08,-184.13 -71.97,-303.19 -228.75,-395.12 -191.97,-112.57 -390.34,-228.4 -583.63,-339.63 -214.17,-123.24 -267.5,-273.92 -113.7,-472.59 -50.01,-109.63 -224.29,-89.49 -320.46,-73.59 -107.75,65.51 -139.12,208.68 -133,325.86 8.7,166.55 96.98,325.04 217.94,437.69 386.35,291.25 773.16,581.89 1160.58,871.71 -0.01,-118.11 0.37,-236.22 1.02,-354.33" /></g></g><g
       id="g76"
       transform="matrix(0.13333333,0,0,-0.13333333,0,755.90667)"><g
         clip-path="url(#clipPath82)"
         id="g78"><path
           id="path90"
           style="fill:url(#linearGradient88);fill-opacity:1;fill-rule:nonzero;stroke:none"
           d="m 2814.81,2753.18 c 0,0 -23.38,18.93 -61.9,53.29 -182.63,162.82 -421.03,414.55 -173.62,636.67 -81.52,-61.76 -149.68,-136.39 -208.46,-215.09 -175.04,-234.36 -140.96,-611.42 -132.54,-892.7 4.04,-135.22 163.79,-165.21 265.38,-111.16 111.88,59.52 231.23,126.32 339.5,184.6 166.08,89.43 84.36,253.69 -28.36,344.39" /></g></g><g
       id="g92"
       transform="matrix(0.13333333,0,0,-0.13333333,0,755.90667)"><g
         clip-path="url(#clipPath98)"
         id="g94"><path
           id="path106"
           style="fill:url(#linearGradient104);fill-opacity:1;fill-rule:nonzero;stroke:none"
           d="m 2244,1521.57 c -5.07,184.14 71.94,303.19 228.77,395.11 192.01,112.54 390.36,228.46 583.6,339.64 214.13,123.2 267.52,273.94 113.72,472.59 50.04,109.64 224.29,89.47 320.48,73.58 107.7,-65.53 139.04,-208.74 132.96,-325.86 -8.65,-166.44 -97.02,-325.03 -217.9,-437.68 -386.37,-291.24 -773.18,-581.87 -1160.61,-871.71 0,118.11 -0.36,236.21 -1.02,354.33" /></g></g><g
       id="g108"
       transform="matrix(0.13333333,0,0,-0.13333333,0,755.90667)"><g
         clip-path="url(#clipPath114)"
         id="g110"><path
           id="path122"
           style="fill:url(#linearGradient120);fill-opacity:1;fill-rule:nonzero;stroke:none"
           d="m 3170.09,2728.91 c 0,0 23.37,-18.95 61.89,-53.28 182.7,-162.88 420.98,-414.49 173.65,-636.68 81.51,61.75 149.61,136.38 208.41,215.08 175.1,234.37 141.05,611.48 132.57,892.7 -4.08,135.25 -163.75,165.22 -265.38,111.16 -111.91,-59.51 -231.24,-126.29 -339.5,-184.61 -166.07,-89.44 -84.37,-253.64 28.36,-344.37" /></g></g></g></svg>
